<?xml version="1.0" standalone="no"?>
<!DOCTYPE svg PUBLIC "-//W3C//DTD SVG 20010904//EN"
 "http://www.w3.org/TR/2001/REC-SVG-20010904/DTD/svg10.dtd">
<svg version="1.0" xmlns="http://www.w3.org/2000/svg"
 width="600.000000pt" height="600.000000pt" viewBox="0 0 600.000000 600.000000"
 preserveAspectRatio="xMidYMid meet">
<metadata>
Created by potrace 1.11, written by Peter Selinger 2001-2013
</metadata>
<g transform="translate(0.000000,600.000000) scale(0.100000,-0.100000)"
fill="#000000" stroke="none">
<path d="M2991 5948 c-1 -29 -4 -75 -6 -103 -1 -27 -6 -111 -10 -185 -11 -219
-14 -271 -19 -355 -7 -119 -17 -290 -21 -380 -2 -44 -5 -80 -5 -80 -1 0 -3
-40 -5 -90 -7 -135 -13 -249 -19 -355 -4 -52 -9 -140 -11 -195 -3 -55 -8 -140
-11 -190 -2 -49 -6 -124 -9 -165 -4 -79 -12 -217 -20 -360 -2 -47 -7 -125 -10
-175 -2 -49 -7 -130 -10 -180 -3 -49 -7 -128 -10 -175 -2 -47 -7 -132 -10
-190 -4 -58 -8 -148 -10 -200 -2 -52 -5 -95 -5 -95 -1 0 -3 -34 -5 -75 -2 -41
-6 -115 -9 -165 -3 -49 -8 -139 -11 -200 -4 -60 -8 -138 -9 -173 -2 -34 -6
-65 -9 -69 -4 -3 -2 -12 4 -20 6 -7 8 -13 3 -13 -5 0 -10 -28 -10 -63 -1 -34
-4 -114 -8 -177 -6 -113 -11 -195 -21 -399 -3 -57 -8 -107 -11 -110 -3 -3 -38
-7 -77 -8 -40 -1 -128 -4 -197 -7 -251 -11 -437 -18 -535 -21 -55 -2 -100 -4
-100 -5 0 -1 -49 -3 -110 -5 -60 -3 -155 -7 -210 -9 -55 -3 -148 -7 -207 -10
-59 -3 -158 -8 -220 -11 -62 -4 -144 -8 -183 -10 -38 -2 -128 -7 -200 -11 -71
-4 -147 -7 -167 -8 -21 0 -38 -3 -38 -6 0 -9 572 -580 593 -592 33 -18 159
-58 168 -52 5 3 9 0 9 -7 0 -7 3 -10 6 -6 3 3 23 -1 45 -8 21 -8 39 -12 39
-10 0 2 18 -2 40 -10 22 -8 40 -12 40 -10 0 3 12 0 26 -5 14 -6 40 -12 57 -14
18 -3 57 -10 87 -16 30 -7 64 -13 76 -15 11 -2 45 -8 75 -14 30 -5 72 -13 94
-16 22 -3 51 -7 65 -10 14 -2 45 -7 70 -10 25 -3 61 -7 80 -11 19 -3 53 -7 75
-9 22 -2 56 -6 75 -9 19 -2 61 -7 93 -10 32 -3 79 -9 105 -12 26 -3 72 -7 102
-9 74 -5 184 -14 245 -19 181 -17 296 -21 580 -21 284 0 464 7 575 21 19 2 62
6 95 9 33 2 60 5 60 5 0 1 18 4 40 5 22 2 63 7 90 10 28 4 66 8 85 10 19 2 35
4 35 5 0 1 16 4 35 6 38 3 71 8 140 19 25 4 56 8 70 10 14 2 41 6 60 10 19 3
49 8 65 11 17 2 53 9 80 14 28 5 64 12 80 15 17 2 86 16 155 30 69 14 136 28
150 30 30 6 43 8 135 29 39 9 81 19 95 22 45 9 104 24 140 35 l35 11 -1 271
c-1 150 -2 275 -3 278 -2 11 -75 38 -131 49 -30 6 -66 12 -80 15 -14 3 -45 7
-70 10 -25 3 -58 8 -75 10 -16 2 -55 7 -85 10 -30 3 -75 7 -100 10 -25 3 -74
7 -110 10 -36 2 -103 7 -150 10 -156 12 -418 25 -537 28 -50 1 -95 5 -99 9 -3
4 -14 3 -24 -2 -10 -5 -20 -7 -22 -4 -3 3 -174 4 -379 4 -206 -1 -382 -1 -391
0 -10 0 -24 0 -30 0 -7 0 -92 -2 -189 -5 l-175 -5 2 34 c2 19 6 92 9 162 13
285 11 276 43 279 9 1 60 9 112 18 103 18 140 24 210 32 25 2 56 7 70 9 14 3
59 8 100 12 41 3 95 8 120 10 25 2 86 5 136 7 50 2 95 6 100 9 11 6 539 1 654
-6 125 -8 288 -22 355 -30 17 -2 57 -7 90 -10 33 -3 83 -11 110 -16 28 -5 70
-12 94 -15 23 -3 46 -7 50 -9 3 -2 28 -7 54 -10 44 -6 47 -5 39 11 -6 10 -11
23 -12 28 -2 6 -4 15 -6 20 -15 47 -49 152 -50 158 -1 4 -2 8 -4 10 -1 1 -3
10 -5 20 -2 10 -7 26 -11 35 -4 9 -8 22 -10 27 -1 6 -24 71 -49 145 -26 74
-48 140 -49 145 -2 6 -6 17 -9 25 -7 17 -93 258 -109 305 -5 17 -14 39 -19 50
-6 12 -11 27 -13 35 -1 8 -10 32 -19 54 -9 21 -17 42 -17 47 0 5 -4 17 -9 27
-15 26 -132 335 -133 350 -1 6 -6 12 -11 12 -6 0 -8 3 -5 6 5 5 -21 81 -52
149 -5 11 -21 49 -35 85 -15 36 -32 76 -38 90 -6 14 -11 27 -12 30 -4 13 -103
250 -115 275 -5 11 -36 81 -69 155 -32 74 -71 162 -87 195 -15 33 -27 63 -26
68 1 4 -3 7 -10 7 -6 0 -9 3 -6 6 4 3 -19 56 -49 117 -30 62 -56 118 -57 125
-1 7 -8 18 -14 24 -7 7 -12 16 -12 21 0 18 -336 674 -370 722 -7 9 -56 99 -96
175 -11 19 -22 37 -25 40 -3 3 -8 10 -10 15 -4 11 -121 206 -151 253 -10 15
-25 42 -35 60 -9 17 -20 32 -25 32 -4 0 -8 5 -8 10 0 10 -136 219 -149 230 -4
3 -24 31 -45 63 l-39 57 -82 0 -82 0 -2 -52z"/>
<path d="M2813 4443 c-7 -18 -66 -111 -83 -130 -5 -7 -10 -14 -10 -17 0 -2
-22 -39 -50 -80 -27 -42 -50 -78 -50 -81 0 -3 -5 -11 -10 -18 -23 -26 -100
-148 -100 -157 0 -6 -3 -10 -8 -10 -4 0 -18 -20 -32 -45 -14 -25 -28 -45 -32
-45 -5 0 -8 -4 -8 -9 0 -5 -22 -44 -50 -85 -27 -42 -50 -78 -50 -80 0 -3 -23
-40 -51 -83 -55 -83 -89 -136 -161 -248 -25 -38 -70 -109 -101 -157 -32 -48
-57 -92 -57 -98 0 -5 -4 -10 -9 -10 -5 0 -14 -13 -21 -30 -7 -16 -16 -30 -21
-30 -5 0 -9 -4 -9 -9 0 -6 -13 -29 -28 -53 -16 -24 -47 -72 -70 -108 -22 -36
-46 -70 -51 -77 -6 -7 -11 -15 -11 -18 0 -3 -29 -49 -63 -103 -35 -53 -70
-108 -77 -121 -7 -14 -17 -30 -21 -35 -13 -15 -49 -71 -93 -144 -20 -34 -44
-69 -52 -77 -9 -8 -12 -15 -9 -15 4 0 -4 -15 -17 -33 -25 -33 -232 -357 -258
-404 -8 -15 -19 -32 -23 -38 -7 -9 -32 -49 -138 -215 -16 -25 -33 -50 -39 -57
-5 -7 -10 -15 -10 -18 0 -4 -13 -26 -30 -50 -16 -24 -30 -48 -30 -54 0 -6 -3
-11 -7 -11 -7 0 -25 -28 -78 -120 -6 -10 -17 -25 -24 -34 -8 -9 -11 -20 -7
-24 8 -8 1746 -10 1751 -2 2 3 6 34 9 70 4 36 9 81 11 100 3 19 7 64 10 100 3
36 7 81 10 100 2 19 7 62 10 95 3 33 8 85 11 115 3 30 7 75 9 100 2 25 7 70
10 100 3 30 7 78 9 105 2 28 5 50 6 50 1 0 4 18 5 40 2 22 6 68 9 102 3 35 9
91 12 125 3 35 7 77 9 93 2 17 6 59 9 95 3 36 8 83 10 105 2 22 7 72 10 110 4
39 8 86 11 105 2 19 7 62 10 95 3 33 7 76 10 95 2 19 7 67 10 105 3 39 8 81
10 95 7 47 18 185 19 232 1 27 3 48 6 48 3 0 6 19 7 43 1 23 4 67 7 97 4 30 9
78 11 105 6 57 13 130 19 195 3 25 7 81 10 125 4 44 8 89 10 100 3 11 8 62 11
113 7 87 2 113 -12 75z"/>
</g>
</svg>
