<?xml version="1.0" standalone="no"?>
<!DOCTYPE svg PUBLIC "-//W3C//DTD SVG 20010904//EN"
 "http://www.w3.org/TR/2001/REC-SVG-20010904/DTD/svg10.dtd">
<svg version="1.0" xmlns="http://www.w3.org/2000/svg"
 width="512.000000pt" height="512.000000pt" viewBox="0 0 512.000000 512.000000"
 preserveAspectRatio="xMidYMid meet">
<metadata>
Created by potrace 1.11, written by Peter Selinger 2001-2013
</metadata>
<g transform="translate(0.000000,512.000000) scale(0.100000,-0.100000)"
fill="#000000" stroke="none">
<path d="M2418 5112 c-18 -2 -31 -13 -42 -37 -15 -30 -16 -186 -16 -1582 1
-1503 1 -1549 20 -1590 11 -25 33 -51 52 -63 33 -20 48 -20 1153 -20 998 0
1123 2 1143 16 47 33 17 90 -105 200 -337 302 -750 741 -1013 1074 -41 52 -77
97 -80 100 -3 3 -17 21 -30 40 -13 19 -29 40 -35 46 -5 6 -28 37 -50 68 -22
32 -49 70 -61 84 -52 66 -224 329 -319 486 -100 167 -260 471 -319 606 -15 36
-34 79 -42 97 -23 52 -100 255 -119 313 -20 61 -51 128 -69 145 -16 16 -37 21
-68 17z m290 -945 c6 -12 32 -78 58 -147 53 -143 169 -388 237 -503 26 -43 47
-80 47 -82 0 -2 44 -71 99 -152 200 -301 403 -546 686 -828 105 -104 212 -210
238 -234 48 -45 68 -84 49 -103 -11 -11 -1413 -15 -1448 -4 -11 3 -28 20 -38
38 -18 30 -19 72 -19 1012 0 540 3 991 7 1003 12 37 66 37 84 0z"/>
<path d="M2016 4421 c-8 -9 -25 -39 -37 -66 -12 -28 -32 -74 -45 -103 -13 -29
-35 -78 -48 -110 -56 -132 -271 -572 -345 -705 -189 -341 -228 -408 -376 -632
-95 -143 -284 -408 -305 -425 -3 -3 -16 -18 -29 -35 -60 -79 -148 -174 -297
-321 -90 -89 -164 -169 -164 -177 0 -8 7 -18 16 -21 9 -3 360 -6 781 -6 660 0
770 3 801 16 49 20 71 42 93 89 17 38 18 100 19 1260 0 671 -4 1225 -8 1231
-14 20 -40 23 -56 5z m-179 -1691 c2 -732 4 -701 -67 -720 -49 -12 -828 -11
-836 2 -3 5 37 53 90 106 173 175 323 381 479 660 110 197 231 444 288 590 6
15 16 22 27 20 16 -3 17 -44 19 -658z"/>
<path d="M630 1549 c-74 -15 -75 -65 -5 -225 26 -60 53 -122 60 -139 8 -16 74
-171 149 -344 75 -172 136 -315 136 -317 0 -2 13 -33 30 -68 16 -36 41 -94 56
-128 14 -35 35 -83 46 -108 11 -25 29 -65 40 -90 26 -58 63 -97 106 -111 49
-16 2016 -16 2085 0 52 12 109 40 142 68 12 10 124 151 250 313 127 162 235
302 242 310 7 8 35 44 62 80 28 36 55 70 60 76 4 5 55 71 112 145 57 74 108
139 114 146 5 6 35 44 65 83 30 40 77 100 104 134 54 69 69 101 62 131 -13 52
85 49 -1971 50 -1053 0 -1928 -3 -1945 -6z m3304 -318 c20 -17 15 -50 -13 -84
-24 -28 -364 -465 -445 -572 -34 -44 -63 -82 -66 -85 -3 -3 -21 -25 -40 -50
-19 -25 -40 -51 -47 -58 -7 -8 -18 -22 -23 -32 -5 -10 -33 -30 -62 -44 l-52
-26 -864 0 c-635 0 -869 3 -885 12 -31 16 -47 40 -93 148 -166 382 -299 691
-311 723 -16 45 -5 74 29 79 13 2 660 3 1439 3 1209 0 1419 -2 1433 -14z"/>
</g>
</svg>
